<svg width="30" height="32" viewBox="0 0 30 32" fill="none" xmlns="http://www.w3.org/2000/svg">
<path d="M5 31.2373C3.61111 31.2373 2.43056 30.7818 1.45833 29.8707C0.486111 28.9596 0 27.8533 0 26.5517V21.8661H5V0H30V26.5517C30 27.8533 29.5139 28.9596 28.5417 29.8707C27.5694 30.7818 26.3889 31.2373 25 31.2373H5ZM25 28.1136C25.4722 28.1136 25.8683 27.9636 26.1883 27.6638C26.5083 27.3639 26.6678 26.9932 26.6667 26.5517V3.12373H8.33333V21.8661H23.3333V26.5517C23.3333 26.9942 23.4933 27.3654 23.8133 27.6653C24.1333 27.9652 24.5289 28.1146 25 28.1136ZM10 10.9331V7.80933H25V10.9331H10ZM10 15.6187V12.4949H25V15.6187H10Z" fill="#225332"/>
</svg>
