<svg width="33" height="31" viewBox="0 0 33 31" fill="none" xmlns="http://www.w3.org/2000/svg">
<path d="M19.3619 14.7107C19.3617 15.4675 19.0487 16.1932 18.4919 16.7282C17.9351 17.2631 17.18 17.5635 16.3929 17.5633C15.6057 17.563 14.8508 17.2622 14.2944 16.7268C13.738 16.1915 13.4255 15.4656 13.4258 14.7088C13.426 13.952 13.739 13.2263 14.2958 12.6913C14.8526 12.1564 15.6077 11.856 16.3948 11.8562C17.182 11.8565 17.9369 12.1574 18.4933 12.6927C19.0497 13.228 19.3622 13.9539 19.3619 14.7107ZM28.7972 8.05469H23.773C22.8654 8.05469 21.995 8.40131 21.3532 9.0183C20.7115 9.63529 20.3509 10.4721 20.3509 11.3447V17.5633C20.3509 18.0677 20.5593 18.5514 20.9303 18.908C21.3013 19.2647 21.8044 19.465 22.329 19.465V30.8753H30.2412V19.465C30.7658 19.465 31.2689 19.2647 31.6399 18.908C32.0109 18.5514 32.2193 18.0677 32.2193 17.5633V11.3447C32.2193 10.4721 31.8587 9.63529 31.217 9.0183C30.5752 8.40131 29.7048 8.05469 28.7972 8.05469Z" fill="#134021"/>
<path d="M29.5316 3.78281C29.5435 4.29822 29.4504 4.81076 29.258 5.29035C29.0656 5.76993 28.7776 6.20689 28.411 6.57558C28.0444 6.94426 27.6065 7.23724 27.1231 7.4373C26.6397 7.63737 26.1205 7.7405 25.596 7.74062C25.0716 7.74075 24.5523 7.63788 24.0688 7.43806C23.5853 7.23823 23.1473 6.94547 22.7805 6.57696C22.4137 6.20846 22.1255 5.77164 21.9328 5.29215C21.7402 4.81266 21.6469 4.30016 21.6585 3.78475C21.6812 2.77351 22.1058 1.81121 22.8414 1.10384C23.577 0.396472 24.565 0.000253056 25.5941 1.21173e-07C26.6231 -0.000252813 27.6114 0.395481 28.3473 1.10249C29.0832 1.80949 29.5083 2.77159 29.5316 3.78281ZM8.40666 9.58828H3.40598C2.95857 9.58841 2.51557 9.67515 2.10227 9.84356C1.68896 10.012 1.31345 10.2587 0.99718 10.5698C0.680906 10.8809 0.430059 11.2501 0.258963 11.6564C0.0878665 12.0628 -0.000129129 12.4983 1.42224e-07 12.938C0.000129414 13.3778 0.0883811 13.8132 0.259716 14.2195C0.431052 14.6257 0.682115 14.9948 0.998572 15.3057C1.31503 15.6166 1.69068 15.8631 2.10408 16.0313C2.51749 16.1995 2.96054 16.286 3.40795 16.2859C4.31153 16.2856 5.178 15.9325 5.81674 15.3043C6.45549 14.6761 6.81419 13.8243 6.81392 12.9361C6.81366 12.0479 6.45447 11.1963 5.81535 10.5684C5.17624 9.9406 4.30956 9.58803 3.40598 9.58828C2.50266 9.58828 1.63593 9.94197 0.99718 10.5698C0.358436 11.1976 1.42224e-07 12.0501 1.42224e-07 12.938L2.14021e-07 17.3289C2.14021e-07 17.8421 0.207424 18.3344 0.576641 18.6973C0.945857 19.0602 1.44662 19.2641 1.96877 19.2641L2.14021e-07 25.0695H1.96877V30.875H9.84387V25.0695H11.8126L9.84387 19.2641C10.366 19.2641 10.8668 19.0602 11.236 18.6973C11.6052 18.3344 11.8126 17.8421 11.8126 17.3289V12.9361C11.8126 12.4965 11.7245 12.0611 11.5534 11.6549C11.3822 11.2488 11.1313 10.8797 10.8151 10.5688C10.4988 10.258 10.1233 10.0114 9.71007 9.84312C9.29684 9.67488 8.85394 9.58828 8.40666 9.58828Z" fill="#134021"/>
<path d="M9.69581 6.3694C9.70839 6.87145 9.60972 7.37072 9.4056 7.83788C9.20148 8.30504 8.89602 8.73069 8.50716 9.08982C8.11829 9.44896 7.65386 9.73434 7.14113 9.92923C6.62839 10.1241 6.07769 10.2246 5.52136 10.2247C4.96503 10.2248 4.41427 10.1246 3.90143 9.92996C3.38859 9.73531 2.924 9.45013 2.53494 9.09117C2.14587 8.73221 1.84018 8.30671 1.6358 7.83964C1.43142 7.37257 1.33247 6.87334 1.34477 6.37128C1.3689 5.38624 1.81928 4.44886 2.59949 3.75982C3.3797 3.07077 4.42775 2.68482 5.51927 2.68457C6.61079 2.68432 7.65905 3.06981 8.43965 3.7585C9.22024 4.44719 9.67114 5.38436 9.69581 6.3694ZM13.8724 25.2197V30.8748H18.0489V25.2197C18.6028 25.2197 19.134 25.0211 19.5256 24.6676C19.9172 24.3141 20.1372 23.8346 20.1372 23.3347V20.4317C20.1372 19.7018 19.816 19.0018 19.2442 18.4857C18.6725 17.9695 17.897 17.6796 17.0883 17.6796H14.833C14.0244 17.6796 13.2489 17.9695 12.6771 18.4857C12.1053 19.0018 11.7841 19.7018 11.7841 20.4317V23.3347C11.7841 23.8346 12.0041 24.3141 12.3957 24.6676C12.7874 25.0211 13.3185 25.2197 13.8724 25.2197Z" fill="#134021"/>
</svg>
