<svg width="73" height="25" viewBox="0 0 73 25" fill="none" xmlns="http://www.w3.org/2000/svg">
<g clip-path="url(#clip0_139_513)">
<path d="M70.4732 15.4773L72.4854 16.8188C71.8323 17.7807 70.2703 19.4311 67.5697 19.4311C64.2162 19.4311 61.7188 16.8365 61.7188 13.5358C61.7188 10.0235 64.2427 7.64062 67.2874 7.64062C70.3496 7.64062 71.8499 10.0763 72.3354 11.3913L72.6002 12.062L64.7105 15.3273C65.3106 16.5099 66.2461 17.1101 67.5697 17.1101C68.8936 17.1101 69.8113 16.457 70.4732 15.4773ZM64.2869 13.3506L69.5555 11.1619C69.2642 10.4295 68.3995 9.90885 67.3667 9.90885C66.0519 9.90885 64.2251 11.0738 64.2869 13.3506Z" fill="#FF302F"/>
<path d="M57.918 1.63086H60.4595V18.8929H57.918V1.63086Z" fill="#20B15A"/>
<path d="M53.9094 8.09948H56.3628V18.5838C56.3628 22.9345 53.7946 24.726 50.7587 24.726C47.8995 24.726 46.1786 22.8022 45.5343 21.2402L47.7847 20.3046C48.1906 21.2665 49.1702 22.4051 50.7587 22.4051C52.709 22.4051 53.9094 21.196 53.9094 18.9368V18.0897H53.8211C53.2386 18.7956 52.1266 19.431 50.7147 19.431C47.767 19.431 45.0664 16.8628 45.0664 13.5535C45.0664 10.2263 47.767 7.63184 50.7147 7.63184C52.1179 7.63184 53.2386 8.25843 53.8211 8.94679H53.9094V8.09948ZM54.0858 13.5535C54.0858 11.4707 52.7003 9.95276 50.9352 9.95276C49.1525 9.95276 47.6522 11.4707 47.6522 13.5535C47.6522 15.6097 49.1525 17.1011 50.9352 17.1011C52.7004 17.11 54.0859 15.6097 54.0859 13.5535" fill="#3686F7"/>
<path d="M31.1146 13.5094C31.1146 16.9072 28.4671 19.4046 25.2194 19.4046C21.9718 19.4046 19.3242 16.8984 19.3242 13.5094C19.3242 10.0941 21.9718 7.60547 25.2194 7.60547C28.4671 7.60547 31.1146 10.0941 31.1146 13.5094ZM28.5377 13.5094C28.5377 11.3915 27.002 9.93518 25.2194 9.93518C23.4368 9.93518 21.9011 11.3915 21.9011 13.5094C21.9011 15.6098 23.4368 17.0837 25.2194 17.0837C27.0021 17.0837 28.5377 15.6098 28.5377 13.5094Z" fill="#FF302F"/>
<path d="M43.9896 13.5358C43.9896 16.9335 41.342 19.431 38.0944 19.431C34.8467 19.431 32.1992 16.9334 32.1992 13.5358C32.1992 10.1205 34.8467 7.64062 38.0944 7.64062C41.342 7.64062 43.9896 10.1117 43.9896 13.5358ZM41.4037 13.5358C41.4037 11.4179 39.8682 9.96155 38.0855 9.96155C36.3027 9.96155 34.7672 11.4179 34.7672 13.5358C34.7672 15.6362 36.3029 17.1101 38.0855 17.1101C39.877 17.1101 41.4037 15.6274 41.4037 13.5358Z" fill="#FFBA40"/>
<path d="M9.63287 16.8463C5.93509 16.8463 3.04055 13.8634 3.04055 10.1656C3.04055 6.46795 5.93509 3.48502 9.63287 3.48502C11.6274 3.48502 13.0834 4.27042 14.1601 5.27654L15.9341 3.50273C14.4338 2.06424 12.4305 0.969727 9.63287 0.969727C4.56729 0.969868 0.304688 5.10016 0.304688 10.1656C0.304688 15.231 4.56729 19.3615 9.63287 19.3615C12.3687 19.3615 14.4338 18.4613 16.0488 16.7845C17.7079 15.1253 18.2197 12.7955 18.2197 10.9069C18.2197 10.3156 18.1492 9.70674 18.0697 9.25666H9.63287V11.71H15.6428C15.4663 13.2457 14.9809 14.2959 14.2661 15.0106C13.4012 15.8844 12.0334 16.8463 9.63287 16.8463Z" fill="#3686F7"/>
</g>
<defs>
<clipPath id="clip0_139_513">
<rect width="72.5333" height="23.8" fill="white" transform="translate(0.199219 0.932617)"/>
</clipPath>
</defs>
</svg>
