<svg width="23" height="22" viewBox="0 0 23 22" fill="none" xmlns="http://www.w3.org/2000/svg">
<path fill-rule="evenodd" clip-rule="evenodd" d="M16.2227 0H6.80439C3.55342 0 0.917969 2.63545 0.917969 5.88643V15.3047C0.917969 18.5557 3.55342 21.1911 6.80439 21.1911H16.2227C19.4736 21.1911 22.1091 18.5557 22.1091 15.3047V5.88643C22.1091 2.63545 19.4736 0 16.2227 0ZM20.0488 15.3047C20.0424 17.4151 18.3331 19.1244 16.2227 19.1309H6.80439C4.69393 19.1244 2.98468 17.4151 2.97822 15.3047V5.88643C2.98468 3.77596 4.69393 2.06671 6.80439 2.06025H16.2227C18.3331 2.06671 20.0424 3.77596 20.0488 5.88643V15.3047ZM17.1056 6.18075C17.7559 6.18075 18.2829 5.65365 18.2829 5.00346C18.2829 4.35327 17.7559 3.82618 17.1056 3.82618C16.4554 3.82618 15.9284 4.35327 15.9284 5.00346C15.9284 5.65365 16.4554 6.18075 17.1056 6.18075ZM11.5135 5.29778C8.58765 5.29778 6.21575 7.66968 6.21575 10.5956C6.21575 13.5215 8.58765 15.8933 11.5135 15.8933C14.4394 15.8933 16.8113 13.5215 16.8113 10.5956C16.8145 9.18953 16.2573 7.84021 15.2631 6.84601C14.2689 5.8518 12.9196 5.29465 11.5135 5.29778ZM8.276 10.5956C8.276 12.3836 9.72547 13.8331 11.5135 13.8331C13.3016 13.8331 14.7511 12.3836 14.7511 10.5956C14.7511 8.8075 13.3016 7.35803 11.5135 7.35803C9.72547 7.35803 8.276 8.8075 8.276 10.5956Z" fill="#134021"/>
</svg>
