<svg width="33" height="34" viewBox="0 0 33 34" fill="none" xmlns="http://www.w3.org/2000/svg">
<path d="M16.5 0.5C7.40215 0.5 0 7.90215 0 17C0 26.0978 7.40215 33.5 16.5 33.5C25.5978 33.5 33 26.0978 33 17C33 7.90215 25.5978 0.5 16.5 0.5ZM16.5 3.03846C24.2258 3.03846 30.4615 9.27419 30.4615 17C30.4615 24.7258 24.2258 30.9615 16.5 30.9615C8.77419 30.9615 2.53846 24.7258 2.53846 17C2.53846 9.27419 8.77419 3.03846 16.5 3.03846ZM15.2308 15.7308L8.88461 15.7308V18.2692H15.2308L17.7692 18.2692L24.1154 18.2692V15.7308H17.7692L15.2308 15.7308Z" fill="#B1CF5F"/>
</svg>
