<svg width="28" height="28" viewBox="0 0 28 28" fill="none" xmlns="http://www.w3.org/2000/svg">
<path d="M14 0C6.28062 0 0 6.28062 0 14C0 21.7194 6.28062 28 14 28C21.7194 28 28 21.7194 28 14C28 6.28062 21.7194 0 14 0ZM14 2.15385C20.5552 2.15385 25.8462 7.44477 25.8462 14C25.8462 20.5552 20.5552 25.8462 14 25.8462C7.44477 25.8462 2.15385 20.5552 2.15385 14C2.15385 7.44477 7.44477 2.15385 14 2.15385ZM12.9231 12.9231L7.53846 12.9231V15.0769H12.9231L15.0769 15.0769L20.4615 15.0769V12.9231H15.0769L12.9231 12.9231Z" fill="#134021"/>
</svg>
