<svg width="37" height="37" viewBox="0 0 37 37" fill="none" xmlns="http://www.w3.org/2000/svg">
<path d="M4.5025 29.3661C4.68422 29.1766 4.90335 29.0245 5.14683 28.9191C5.3903 28.8136 5.65314 28.7569 5.91965 28.7523C6.18616 28.7477 6.45089 28.7954 6.69805 28.8924C6.9452 28.9895 7.16971 29.1339 7.3582 29.3172C7.54668 29.5004 7.69527 29.7186 7.79509 29.9589C7.89492 30.1992 7.94395 30.4565 7.93925 30.7156C7.93455 30.9747 7.87621 31.2302 7.76772 31.4669C7.65924 31.7036 7.50282 31.9166 7.30781 32.0932L3.33803 35.9524C2.96176 36.2932 2.4641 36.4787 1.94987 36.4699C1.43565 36.4611 0.945027 36.2586 0.581361 35.9051C0.217695 35.5515 0.00938208 35.0746 0.000309238 34.5747C-0.0087636 34.0748 0.182112 33.591 0.532723 33.2253L4.5025 29.3661ZM17.7245 26.7934C17.9062 26.6038 18.1254 26.4518 18.3688 26.3463C18.6123 26.2409 18.8751 26.1841 19.1417 26.1796C19.4082 26.175 19.6729 26.2227 19.9201 26.3197C20.1672 26.4168 20.3917 26.5612 20.5802 26.7444C20.7687 26.9277 20.9173 27.1459 21.0171 27.3862C21.1169 27.6264 21.166 27.8838 21.1613 28.1429C21.1566 28.4019 21.0982 28.6575 20.9897 28.8941C20.8812 29.1308 20.7248 29.3439 20.5298 29.5205L13.9135 35.9524C13.5373 36.2932 13.0396 36.4787 12.5254 36.4699C12.0111 36.4611 11.5205 36.2586 11.1568 35.9051C10.7932 35.5515 10.5849 35.0746 10.5758 34.5747C10.5667 34.0748 10.7576 33.591 11.1082 33.2253L17.7245 26.7934ZM30.3431 15.9365C30.509 15.9349 30.6713 15.984 30.807 16.0768C30.9428 16.1695 31.0453 16.3013 31.1 16.4536L31.759 18.4243C31.9647 19.0223 32.3106 19.5656 32.7695 20.0112C33.2283 20.4568 33.7875 20.7926 34.4029 20.9919L36.4275 21.6299L36.4672 21.6402C36.5837 21.6806 36.689 21.7465 36.7749 21.833C36.8608 21.9195 36.925 22.0241 36.9624 22.1387C36.9998 22.2533 37.0095 22.3748 36.9906 22.4936C36.9717 22.6124 36.9248 22.7254 36.8535 22.8237C36.7582 22.9548 36.6231 23.0537 36.4672 23.1067L34.4426 23.7447C33.8272 23.944 33.268 24.2798 32.8091 24.7254C32.3503 25.171 32.0043 25.7143 31.7987 26.3123L31.1397 28.283C31.0837 28.4338 30.9812 28.5642 30.8463 28.6563C30.7113 28.7484 30.5504 28.7979 30.3855 28.7979C30.2205 28.7979 30.0596 28.7484 29.9246 28.6563C29.7897 28.5642 29.6872 28.4338 29.6312 28.283L28.9696 26.3123C28.7656 25.7127 28.4207 25.1675 27.9622 24.7201C27.5037 24.2726 26.9443 23.9351 26.3283 23.7344L24.3038 23.0964C24.1876 23.0556 24.0826 22.9894 23.997 22.9029C23.9114 22.8163 23.8475 22.7118 23.8101 22.5974C23.7728 22.4829 23.763 22.3617 23.7816 22.243C23.8002 22.1243 23.8466 22.0114 23.9174 21.9129C24.0127 21.7818 24.1478 21.6829 24.3038 21.6299L26.3283 20.9919C26.9363 20.7875 27.4876 20.4495 27.9393 20.0041C28.391 19.5588 28.7309 19.0182 28.9325 18.4243L29.5915 16.451C29.6464 16.3 29.7482 16.1694 29.8829 16.0772C30.0176 15.985 30.1784 15.9358 30.3431 15.9365ZM14.4269 19.7184C14.6087 19.5288 14.8278 19.3767 15.0713 19.2713C15.3147 19.1658 15.5776 19.1091 15.8441 19.1045C16.1106 19.1 16.3753 19.1476 16.6225 19.2447C16.8696 19.3417 17.0942 19.4862 17.2826 19.6694C17.4711 19.8526 17.6197 20.0709 17.7195 20.3111C17.8194 20.5514 17.8684 20.8088 17.8637 21.0678C17.859 21.3269 17.8007 21.5824 17.6922 21.8191C17.5837 22.0558 17.4273 22.2688 17.2323 22.4455L12.6008 26.9478C12.2246 27.2886 11.7269 27.4742 11.2127 27.4653C10.6985 27.4565 10.2078 27.254 9.84418 26.9005C9.48051 26.547 9.2722 26.07 9.26312 25.5701C9.25405 25.0702 9.44493 24.5865 9.79554 24.2207L14.4269 19.7184ZM7.14902 16.5025C7.33073 16.3129 7.54987 16.1608 7.79335 16.0554C8.03682 15.9499 8.29966 15.8932 8.56617 15.8886C8.83268 15.8841 9.09741 15.9317 9.34457 16.0288C9.59172 16.1258 9.81623 16.2702 10.0047 16.4535C10.1932 16.6367 10.3418 16.855 10.4416 17.0952C10.5414 17.3355 10.5905 17.5928 10.5858 17.8519C10.5811 18.111 10.5227 18.3665 10.4142 18.6032C10.3058 18.8399 10.1493 19.0529 9.95433 19.2296L3.33803 25.6614C2.96176 26.0022 2.4641 26.1878 1.94987 26.179C1.43565 26.1702 0.945027 25.9676 0.581361 25.6141C0.217695 25.2606 0.00938208 24.7836 0.000309238 24.2838C-0.0087636 23.7839 0.182112 23.3001 0.532723 22.9343L7.14902 16.5025ZM19.7438 0.500034C19.9757 0.49879 20.2021 0.568066 20.3915 0.698161C20.5808 0.828255 20.7236 1.01266 20.7998 1.22555L21.7208 3.98352C22.0067 4.82113 22.4902 5.58213 23.1326 6.20573C23.775 6.82934 24.5585 7.29826 25.4206 7.57506L28.2577 8.47295L28.3159 8.48581C28.5324 8.5623 28.7194 8.70173 28.8516 8.88515C28.9838 9.06857 29.0547 9.28709 29.0547 9.51105C29.0547 9.735 28.9838 9.95352 28.8516 10.1369C28.7194 10.3204 28.5324 10.4598 28.3159 10.5363L25.4788 11.4342C24.6163 11.7106 23.8322 12.1794 23.1893 12.803C22.5465 13.4266 22.0626 14.1878 21.7763 15.0257L20.858 17.7837C20.8002 17.9422 20.7054 18.0855 20.5811 18.2024C20.4567 18.3193 20.3062 18.4066 20.1414 18.4574C19.9765 18.5083 19.8017 18.5213 19.6308 18.4955C19.4599 18.4696 19.2975 18.4056 19.1563 18.3085L19.0981 18.2699C18.9336 18.1444 18.8112 17.9743 18.7461 17.7811L17.8251 15.0283C17.5412 14.1878 17.0587 13.4237 16.4161 12.7973C15.7736 12.1709 14.989 11.6996 14.1252 11.4213L11.2855 10.5234C11.0678 10.4481 10.8794 10.3091 10.7462 10.1255C10.613 9.94196 10.5415 9.72283 10.5415 9.49818C10.5415 9.27354 10.613 9.0544 10.7462 8.87084C10.8794 8.68728 11.0678 8.54829 11.2855 8.47295L14.1226 7.57506C14.9744 7.29112 15.7468 6.819 16.3791 6.19581C17.0114 5.57262 17.4865 4.81535 17.7669 3.98352L18.6878 1.22555C18.7642 1.01224 18.9073 0.82754 19.0972 0.697408C19.2871 0.567276 19.5115 0.498252 19.7438 0.500034Z" fill="#225332"/>
</svg>
