<svg width="38" height="32" viewBox="0 0 38 32" fill="none" xmlns="http://www.w3.org/2000/svg">
<path d="M35.3611 16.2429C35.3611 6.57114 27.4328 0 18.6111 0C9.8825 0 1.86111 6.4302 1.86111 16.3486C0.744444 16.9476 0 18.075 0 19.3787V22.9021C0 24.84 1.675 26.4255 3.72222 26.4255C4.74583 26.4255 5.58333 25.6327 5.58333 24.6638V16.19C5.58333 9.44271 11.0736 3.54102 18.2017 3.34723C19.9462 3.29701 21.6836 3.57878 23.311 4.17583C24.9383 4.77289 26.4225 5.67309 27.6756 6.82308C28.9286 7.97308 29.9251 9.34947 30.6059 10.8707C31.2867 12.3919 31.638 14.027 31.6389 15.6791V28.1872H18.6111C17.5875 28.1872 16.75 28.98 16.75 29.9489C16.75 30.9178 17.5875 31.7106 18.6111 31.7106H31.6389C33.6861 31.7106 35.3611 30.1251 35.3611 28.1872V26.0379C36.4592 25.4918 37.2222 24.4172 37.2222 23.1487V19.0968C37.2222 17.8636 36.4592 16.789 35.3611 16.2429Z" fill="#225332"/>
<path d="M13.0252 19.3789C14.053 19.3789 14.8863 18.5901 14.8863 17.6172C14.8863 16.6442 14.053 15.8555 13.0252 15.8555C11.9973 15.8555 11.1641 16.6442 11.1641 17.6172C11.1641 18.5901 11.9973 19.3789 13.0252 19.3789Z" fill="#225332"/>
<path d="M24.197 19.3789C25.2249 19.3789 26.0582 18.5901 26.0582 17.6172C26.0582 16.6442 25.2249 15.8555 24.197 15.8555C23.1692 15.8555 22.3359 16.6442 22.3359 17.6172C22.3359 18.5901 23.1692 19.3789 24.197 19.3789Z" fill="#225332"/>
<path d="M29.7764 14.1475C29.3326 11.6708 27.9775 9.42254 25.9508 7.80075C23.9241 6.17896 21.3566 5.28819 18.7028 5.28613C13.0636 5.28613 6.9964 9.708 7.48029 16.6491C9.77575 15.7608 11.8031 14.3483 13.3814 12.5377C14.9597 10.727 16.0398 8.57467 16.5253 6.27268C18.9633 10.906 23.9697 14.0946 29.7764 14.1475Z" fill="#225332"/>
</svg>
