<svg width="28" height="28" viewBox="0 0 28 28" fill="none" xmlns="http://www.w3.org/2000/svg">
<path fill-rule="evenodd" clip-rule="evenodd" d="M10.6287 1.68078C10.4077 1.87909 10.1764 2.06555 9.9357 2.23937C9.51849 2.51937 9.04948 2.71256 8.55666 2.81056C8.34246 2.85256 8.11845 2.87076 7.67184 2.90576C6.55041 2.99536 5.989 3.04016 5.52139 3.20536C4.98657 3.39386 4.5008 3.69984 4.09982 4.10081C3.69884 4.50177 3.39284 4.98752 3.20433 5.52232C3.03913 5.98991 2.99432 6.5513 2.90472 7.67268C2.88864 7.96909 2.85687 8.26443 2.80952 8.55747C2.71152 9.05026 2.51831 9.51925 2.23831 9.93645C2.1165 10.1184 1.9709 10.2892 1.67969 10.6294C0.950274 11.4862 0.584865 11.9146 0.370659 12.3626C-0.123553 13.3986 -0.123553 14.6026 0.370659 15.6386C0.584865 16.0865 0.950274 16.5149 1.67969 17.3717C1.9709 17.7119 2.1165 17.8827 2.23831 18.0647C2.51831 18.4819 2.71152 18.9509 2.80952 19.4437C2.85152 19.6579 2.86972 19.8819 2.90472 20.3285C2.99432 21.4499 3.03913 22.0112 3.20433 22.4788C3.39284 23.0136 3.69884 23.4994 4.09982 23.9004C4.5008 24.3013 4.98657 24.6073 5.52139 24.7958C5.989 24.961 6.55041 25.0058 7.67184 25.0954C8.11845 25.1304 8.34246 25.1486 8.55666 25.1906C9.04948 25.2886 9.51849 25.4832 9.9357 25.7618C10.1177 25.8836 10.2885 26.0292 10.6287 26.3204C11.4855 27.0498 11.9139 27.4152 12.362 27.6294C13.398 28.1236 14.602 28.1236 15.638 27.6294C16.0861 27.4152 16.5145 27.0498 17.3713 26.3204C17.7115 26.0292 17.8823 25.8836 18.0643 25.7618C18.4815 25.4818 18.9505 25.2886 19.4433 25.1906C19.6575 25.1486 19.8815 25.1304 20.3282 25.0954C21.4496 25.0058 22.011 24.961 22.4786 24.7958C23.0134 24.6073 23.4992 24.3013 23.9002 23.9004C24.3012 23.4994 24.6072 23.0136 24.7957 22.4788C24.9609 22.0112 25.0057 21.4499 25.0953 20.3285C25.1303 19.8819 25.1485 19.6579 25.1905 19.4437C25.2885 18.9509 25.4831 18.4819 25.7617 18.0647C25.8835 17.8827 26.0291 17.7119 26.3203 17.3717C27.0497 16.5149 27.4151 16.0865 27.6293 15.6386C28.1236 14.6026 28.1236 13.3986 27.6293 12.3626C27.4151 11.9146 27.0497 11.4862 26.3203 10.6294C26.122 10.4085 25.9355 10.1772 25.7617 9.93645C25.4815 9.51932 25.2873 9.05052 25.1905 8.55747C25.1431 8.26443 25.1114 7.96909 25.0953 7.67268C25.0057 6.5513 24.9609 5.98991 24.7957 5.52232C24.6072 4.98752 24.3012 4.50177 23.9002 4.10081C23.4992 3.69984 23.0134 3.39386 22.4786 3.20536C22.011 3.04016 21.4496 2.99536 20.3282 2.90576C20.0317 2.88968 19.7364 2.85791 19.4433 2.81056C18.9503 2.71371 18.4814 2.51953 18.0643 2.23937C17.8236 2.06555 17.5923 1.87909 17.3713 1.68078C16.5145 0.951393 16.0861 0.585999 15.638 0.371803C15.1267 0.127048 14.5669 0 14 0C13.4331 0 12.8733 0.127048 12.362 0.371803C11.9139 0.585999 11.4855 0.951393 10.6287 1.68078ZM20.1224 11.0088C20.3202 10.7923 20.427 10.5077 20.4204 10.2145C20.4137 9.9212 20.2943 9.64178 20.0869 9.43435C19.8794 9.22693 19.6 9.10748 19.3067 9.10087C19.0134 9.09426 18.7289 9.20099 18.5123 9.39886L11.7221 16.1887L9.48769 13.9558C9.27112 13.7579 8.98658 13.6512 8.6933 13.6578C8.40002 13.6644 8.12058 13.7839 7.91315 13.9913C7.70571 14.1987 7.58626 14.4781 7.57965 14.7714C7.57304 15.0647 7.67977 15.3492 7.87765 15.5658L10.9157 18.6037C11.1294 18.8169 11.4189 18.9367 11.7207 18.9367C12.0226 18.9367 12.3121 18.8169 12.5258 18.6037L20.1224 11.0088Z" fill="#B1CF5F"/>
</svg>
